<svg width="10" height="10" xmlns="http://www.w3.org/2000/svg"><path d="M1.95 9H.876V.469h1.072V9zm7.218-1.06l-.188.234c-.539.629-1.328.943-2.367.943-.922 0-1.646-.305-2.174-.914-.523-.613-.79-1.478-.802-2.596V3.932c0-1.196.238-2.09.715-2.684.48-.598 1.197-.896 2.15-.896.812 0 1.447.226 1.904.68.461.452.715 1.099.762 1.939H8.096c-.043-.532-.192-.946-.446-1.242-.25-.301-.63-.452-1.142-.452-.613 0-1.063.202-1.348.604-.285.398-.433 1.037-.445 1.916v1.74c0 .86.164 1.52.492 1.98.328.458.799.686 1.412.686.578 0 1.018-.14 1.319-.422l.158-.146V5.666H6.537v-.914h2.631v3.187z"/></svg>
