<svg width="12" height="9" xmlns="http://www.w3.org/2000/svg"><path d="M4.559 5.232H1.676V9H.604V.469h4.44v.926H1.677v2.917H4.56v.92zM6.369 9V.469h2.432c.777 0 1.361.19 1.752.568.394.379.591.947.591 1.705 0 .399-.1.75-.298 1.055-.2.305-.469.54-.809.709.39.117.7.357.926.72.23.364.346.801.346 1.313 0 .766-.211 1.367-.633 1.805C10.258 8.78 9.66 9 8.883 9H6.369zm1.072-3.99v3.07h1.465c.406 0 .729-.133.967-.398.238-.27.357-.647.357-1.131 0-1.028-.433-1.541-1.3-1.541H7.44zm0-.903h1.377c.371 0 .67-.125.897-.375.23-.25.345-.582.345-.996 0-.468-.103-.808-.31-1.02-.207-.214-.523-.321-.95-.321H7.442v2.712z"/></svg>
